<svg width="42" height="41" viewBox="0 0 42 41" fill="none" xmlns="http://www.w3.org/2000/svg">
<path d="M8 10.7051H35.58C36.1388 10.7051 36.6915 10.8222 37.2023 11.0489C37.7131 11.2756 38.1707 11.6067 38.5457 12.0211C38.9207 12.4355 39.2047 12.9238 39.3794 13.4546C39.5541 13.9855 39.6156 14.547 39.56 15.1031L38.36 27.1031C38.2613 28.0901 37.7994 29.0052 37.0639 29.6708C36.3285 30.3364 35.3719 30.705 34.38 30.7051H15.28C14.3549 30.7054 13.4584 30.3852 12.7429 29.7988C12.0274 29.2124 11.5373 28.3962 11.356 27.4891L8 10.7051Z" stroke="#246FFF" stroke-width="4" stroke-linejoin="round"/>
<path d="M30 38.7051H34M8 10.7051L6.38 4.21908C6.27166 3.78658 6.0219 3.4027 5.67042 3.12839C5.31893 2.85408 4.88586 2.70509 4.44 2.70508H2L8 10.7051ZM14 38.7051H18H14Z" stroke="#246FFF" stroke-width="4" stroke-linecap="round" stroke-linejoin="round"/>
</svg>
