<svg width="26" height="19" viewBox="0 0 26 19" fill="none" xmlns="http://www.w3.org/2000/svg">
<path d="M0.5 1.5C0.5 1.10218 0.658035 0.720644 0.93934 0.43934C1.22064 0.158035 1.60218 0 2 0H24C24.3978 0 24.7794 0.158035 25.0607 0.43934C25.342 0.720644 25.5 1.10218 25.5 1.5C25.5 1.89782 25.342 2.27936 25.0607 2.56066C24.7794 2.84196 24.3978 3 24 3H2C1.60218 3 1.22064 2.84196 0.93934 2.56066C0.658035 2.27936 0.5 1.89782 0.5 1.5ZM4.5 9.5C4.5 9.10218 4.65804 8.72064 4.93934 8.43934C5.22064 8.15804 5.60218 8 6 8H20C20.3978 8 20.7794 8.15804 21.0607 8.43934C21.342 8.72064 21.5 9.10218 21.5 9.5C21.5 9.89782 21.342 10.2794 21.0607 10.5607C20.7794 10.842 20.3978 11 20 11H6C5.60218 11 5.22064 10.842 4.93934 10.5607C4.65804 10.2794 4.5 9.89782 4.5 9.5ZM8.5 17.5C8.5 17.1022 8.65804 16.7206 8.93934 16.4393C9.22064 16.158 9.60218 16 10 16H16C16.3978 16 16.7794 16.158 17.0607 16.4393C17.342 16.7206 17.5 17.1022 17.5 17.5C17.5 17.8978 17.342 18.2794 17.0607 18.5607C16.7794 18.842 16.3978 19 16 19H10C9.60218 19 9.22064 18.842 8.93934 18.5607C8.65804 18.2794 8.5 17.8978 8.5 17.5Z" fill="#246FFF"/>
</svg>
