<svg width="26" height="26" viewBox="0 0 26 26" fill="none" xmlns="http://www.w3.org/2000/svg">
<path d="M23.016 25.4105L14.4435 16.8365C10.63 19.5477 5.37511 18.8845 2.35477 15.3109C-0.665578 11.7372 -0.443803 6.44535 2.86496 3.13697C6.17285 -0.172862 11.4652 -0.395597 15.0395 2.62459C18.6138 5.64478 19.2774 10.9001 16.566 14.714L25.1385 23.288L23.0175 25.409L23.016 25.4105ZM9.22796 3.49995C6.38351 3.49931 3.9295 5.49598 3.35167 8.28112C2.77385 11.0663 4.23103 13.8744 6.84097 15.0053C9.45092 16.1363 12.4963 15.2792 14.1333 12.953C15.7703 10.6269 15.5491 7.47094 13.6035 5.39597L14.511 6.29597L13.488 5.27597L13.47 5.25797C12.3476 4.12873 10.8201 3.49566 9.22796 3.49995Z" fill="#246FFF"/>
</svg>
