<svg xmlns="http://www.w3.org/2000/svg" width="30" height="29" fill="none" viewBox="0 0 30 29"><path fill="#fff" fill-opacity=".9" d="M15.0002 0.333252C7.18016 0.333252 0.833496 6.67992 0.833496 14.4999C0.833496 22.3199 7.18016 28.6666 15.0002 28.6666C22.8202 28.6666 29.1668 22.3199 29.1668 14.4999C29.1668 6.67992 22.8202 0.333252 15.0002 0.333252ZM15.0002 4.58325C17.3518 4.58325 19.2502 6.48159 19.2502 8.83325C19.2502 11.1849 17.3518 13.0833 15.0002 13.0833C12.6485 13.0833 10.7502 11.1849 10.7502 8.83325C10.7502 6.48159 12.6485 4.58325 15.0002 4.58325ZM15.0002 24.6999C13.317 24.6999 11.6599 24.2834 10.1768 23.4874C8.69369 22.6915 7.4306 21.5409 6.50016 20.1383C6.54266 17.3191 12.1668 15.7749 15.0002 15.7749C17.8193 15.7749 23.4577 17.3191 23.5002 20.1383C22.5697 21.5409 21.3066 22.6915 19.8235 23.4874C18.3404 24.2834 16.6834 24.6999 15.0002 24.6999Z"/></svg>