<svg width="23" height="23" viewBox="0 0 23 23" fill="none" xmlns="http://www.w3.org/2000/svg">
<path d="M20.9025 22.6425L13.2825 15.0212C9.8927 17.4311 5.22173 16.8417 2.53697 13.6651C-0.147778 10.4885 0.0493565 5.78465 2.99048 2.84386C5.93082 -0.0982079 10.6352 -0.296195 13.8123 2.38842C16.9895 5.07303 17.5793 9.74446 15.1691 13.1345L22.7891 20.7559L20.9038 22.6412L20.9025 22.6425ZM8.64648 3.16651C6.11808 3.16594 3.93673 4.94076 3.42311 7.41644C2.90949 9.89212 4.20476 12.3882 6.52471 13.3935C8.84467 14.3988 11.5517 13.637 13.0068 11.5693C14.4619 9.50156 14.2652 6.69629 12.5358 4.85186L13.3425 5.65186L12.4331 4.7452L12.4171 4.7292C11.4195 3.72543 10.0617 3.1627 8.64648 3.16651Z" fill="#246FFF"/>
</svg>
