<svg width="28" height="28" viewBox="0 0 28 28" fill="none" xmlns="http://www.w3.org/2000/svg">
<path fill-rule="evenodd" clip-rule="evenodd" d="M14 0.25C6.40625 0.25 0.25 6.40625 0.25 14C0.25 21.5938 6.40625 27.75 14 27.75C21.5938 27.75 27.75 21.5938 27.75 14C27.75 6.40625 21.5938 0.25 14 0.25ZM18.6337 11.1337C18.8614 10.898 18.9874 10.5822 18.9846 10.2545C18.9817 9.92675 18.8503 9.61324 18.6185 9.38148C18.3868 9.14972 18.0732 9.01826 17.7455 9.01541C17.4178 9.01256 17.102 9.13855 16.8663 9.36625L14 12.2325L11.1337 9.36625C11.0184 9.24686 10.8805 9.15163 10.728 9.08612C10.5755 9.02061 10.4115 8.98613 10.2455 8.98469C10.0795 8.98324 9.91493 9.01487 9.76131 9.07772C9.60769 9.14057 9.46812 9.23339 9.35076 9.35076C9.23339 9.46812 9.14057 9.60769 9.07772 9.76131C9.01487 9.91493 8.98324 10.0795 8.98469 10.2455C8.98613 10.4115 9.02061 10.5755 9.08612 10.728C9.15163 10.8805 9.24686 11.0184 9.36625 11.1337L12.2325 14L9.36625 16.8663C9.24686 16.9816 9.15163 17.1195 9.08612 17.272C9.02061 17.4245 8.98613 17.5885 8.98469 17.7545C8.98324 17.9205 9.01487 18.0851 9.07772 18.2387C9.14057 18.3923 9.23339 18.5319 9.35076 18.6492C9.46812 18.7666 9.60769 18.8594 9.76131 18.9223C9.91493 18.9851 10.0795 19.0168 10.2455 19.0153C10.4115 19.0139 10.5755 18.9794 10.728 18.9139C10.8805 18.8484 11.0184 18.7531 11.1337 18.6337L14 15.7675L16.8663 18.6337C17.102 18.8614 17.4178 18.9874 17.7455 18.9846C18.0732 18.9817 18.3868 18.8503 18.6185 18.6185C18.8503 18.3868 18.9817 18.0732 18.9846 17.7455C18.9874 17.4178 18.8614 17.102 18.6337 16.8663L15.7675 14L18.6337 11.1337Z" fill="#246FFF"/>
</svg>
